<?xml version="1.0" encoding="UTF-8" standalone="no"?>
<!DOCTYPE svg PUBLIC "-//W3C//DTD SVG 1.1//EN" "http://www.w3.org/Graphics/SVG/1.1/DTD/svg11.dtd">
<svg xmlns="http://www.w3.org/2000/svg" version="1.1" viewBox="0.00 0.00 1346.00 390.00">
<path fill="#66c3d0" d="
  M 525.01 0.00
  L 594.98 0.00
  L 595.00 307.02
  A 0.98 0.98 0.0 0 1 594.02 308.00
  L 525.51 308.00
  A 0.51 0.51 0.0 0 1 525.00 307.49
  L 525.01 0.00
  Z"
/>
<path fill="#393185" d="
  M 0.00 209.66
  L 0.00 183.72
  C 0.71 177.11 0.91 169.28 2.91 163.00
  C 3.43 161.38 3.41 159.53 3.84 158.02
  C 5.36 152.68 6.71 147.30 8.73 142.38
  C 14.80 127.63 22.85 115.35 34.76 104.52
  C 39.97 99.79 46.19 96.16 52.74 92.57
  C 71.37 82.37 96.18 77.66 116.50 78.00
  Q 121.23 78.08 136.46 80.03
  Q 162.39 83.35 183.97 97.10
  C 204.05 109.89 217.70 130.94 224.16 153.81
  C 225.71 159.30 227.05 164.00 227.71 169.52
  C 228.79 178.56 230.62 190.49 229.95 200.57
  Q 228.95 215.63 228.08 221.74
  Q 227.42 226.39 226.36 230.97
  Q 222.91 245.92 216.31 259.79
  Q 216.13 260.17 214.62 262.32
  C 213.74 263.58 213.73 264.88 212.90 266.09
  Q 210.15 270.10 207.34 274.06
  C 193.67 293.41 173.06 305.26 150.62 311.12
  C 144.66 312.67 138.19 313.29 131.87 314.08
  C 118.02 315.82 105.39 315.18 91.37 313.38
  C 70.14 310.66 50.22 301.90 34.95 288.80
  C 26.51 281.54 19.86 272.30 13.48 260.79
  Q 8.21 251.30 4.67 237.43
  Q 4.56 237.01 4.27 236.69
  Q 4.04 236.44 4.02 236.24
  C 3.72 232.55 2.19 229.05 1.77 225.77
  Q 0.76 217.76 0.00 209.66
  Z
  M 145.81 143.94
  Q 131.88 126.11 109.20 128.81
  C 87.37 131.41 77.11 148.43 73.48 168.26
  C 72.82 171.85 71.76 175.42 71.52 178.96
  Q 70.02 201.34 71.55 215.75
  Q 72.26 222.49 76.22 235.77
  C 79.42 246.51 87.84 257.72 98.01 261.48
  C 110.08 265.95 128.48 265.14 139.51 256.62
  C 150.37 248.24 156.64 229.15 157.72 216.24
  Q 159.20 198.62 157.94 180.99
  Q 157.68 177.42 155.97 170.26
  Q 152.77 156.94 149.50 149.40
  Q 148.77 147.72 145.81 143.94
  Z"
/>
<path fill="#66c3d0" d="
  M 1346.00 172.08
  L 1346.00 209.97
  L 1194.77 209.98
  Q 1194.25 209.98 1194.26 210.50
  C 1194.95 240.50 1216.66 260.53 1246.00 262.58
  C 1261.10 263.63 1277.40 263.85 1292.00 259.29
  C 1305.32 255.13 1319.84 248.20 1332.20 238.93
  C 1335.45 236.49 1337.83 236.22 1341.51 237.33
  A 0.69 0.69 0.0 0 1 1342.00 237.99
  L 1342.00 295.27
  A 1.09 1.09 0.0 0 1 1341.30 296.29
  C 1323.68 303.17 1306.88 309.22 1287.62 312.12
  C 1270.32 314.73 1252.29 314.43 1234.52 313.44
  Q 1201.23 311.57 1173.27 295.30
  C 1146.25 279.57 1129.56 250.53 1125.78 220.94
  Q 1125.20 216.42 1124.41 204.39
  C 1123.74 194.42 1124.87 182.67 1125.90 174.43
  Q 1130.45 137.98 1154.80 111.33
  C 1184.86 78.42 1243.38 71.69 1283.79 84.01
  C 1325.17 96.62 1343.38 130.35 1346.00 172.08
  Z
  M 1204.69 137.19
  C 1197.65 145.85 1194.50 156.45 1194.10 167.57
  A 0.41 0.41 0.0 0 0 1194.51 168.00
  L 1276.80 168.00
  Q 1277.54 168.00 1277.57 167.26
  C 1278.04 152.21 1271.88 133.10 1256.42 126.85
  C 1239.99 120.22 1216.28 122.91 1204.69 137.19
  Z"
/>
<path fill="#393185" d="
  M 335.50 107.73
  Q 335.50 109.60 336.93 108.40
  C 342.08 104.09 347.04 100.15 352.88 96.57
  C 359.45 92.54 366.21 88.09 372.95 85.35
  C 406.11 71.88 451.38 79.36 466.36 116.41
  C 472.11 130.62 474.98 145.16 474.99 158.95
  Q 475.01 233.24 475.00 307.50
  A 0.51 0.50 -0.0 0 1 474.49 308.00
  L 405.74 308.00
  A 0.79 0.79 0.0 0 1 404.95 307.21
  Q 405.18 248.48 404.75 190.25
  C 404.72 186.59 404.04 182.45 403.97 178.57
  Q 403.71 163.77 400.69 153.07
  C 396.63 138.69 377.15 136.09 365.11 137.75
  C 355.92 139.02 342.91 144.40 335.85 150.50
  Q 335.50 150.80 335.50 151.26
  L 335.50 307.50
  Q 335.50 308.00 335.00 308.00
  L 266.00 308.00
  A 0.50 0.50 0.0 0 1 265.50 307.50
  L 265.50 86.00
  A 0.50 0.50 0.0 0 1 266.00 85.50
  L 334.87 85.50
  Q 335.50 85.50 335.50 86.12
  L 335.50 107.73
  Z"
/>
<path fill="#66c3d0" d="
  M 950.96 108.70
  C 952.91 108.35 953.86 106.70 954.98 105.83
  Q 971.21 93.36 982.95 87.71
  C 1013.07 73.20 1053.84 76.04 1074.80 104.19
  C 1086.22 119.52 1089.95 143.62 1089.97 163.02
  Q 1090.03 235.27 1089.99 307.50
  A 0.50 0.50 0.0 0 1 1089.49 308.00
  L 1020.51 308.00
  A 0.51 0.51 0.0 0 1 1020.00 307.49
  Q 1020.00 256.65 1020.00 205.59
  C 1020.00 193.89 1019.61 181.60 1018.78 170.68
  C 1017.71 156.53 1015.89 144.09 1000.41 139.34
  C 983.37 134.13 964.99 140.06 950.96 150.31
  A 1.14 1.11 -18.7 0 0 950.50 151.21
  L 950.50 307.50
  A 0.50 0.50 0.0 0 1 950.00 308.00
  L 881.00 308.00
  A 0.50 0.50 0.0 0 1 880.50 307.50
  L 880.50 86.00
  Q 880.50 85.50 881.00 85.50
  L 950.01 85.50
  A 0.51 0.50 90.0 0 1 950.51 86.01
  L 950.48 108.30
  Q 950.48 108.79 950.96 108.70
  Z"
/>
<path fill="#66c3d0" d="
  M 743.70 390.00
  L 668.10 390.00
  L 701.82 303.18
  Q 702.03 302.66 701.83 302.13
  L 620.85 86.43
  Q 620.50 85.50 621.49 85.50
  L 692.73 85.50
  Q 694.35 85.50 694.86 87.03
  L 739.73 221.56
  Q 740.48 223.83 741.20 221.55
  L 783.83 86.34
  A 1.21 1.21 0.0 0 1 784.98 85.50
  L 855.28 85.50
  Q 855.93 85.50 856.01 86.15
  Q 856.16 87.39 855.30 88.31
  Q 854.95 88.68 854.77 89.16
  Q 825.21 168.88 795.57 248.56
  C 794.25 252.12 792.33 258.36 790.22 263.10
  C 789.56 264.58 789.33 266.98 788.06 268.65
  Q 787.76 269.03 787.66 269.50
  Q 787.13 271.86 785.49 276.21
  Q 770.50 315.97 761.26 341.54
  Q 761.07 342.07 760.79 342.36
  Q 760.52 342.64 760.39 343.01
  C 754.95 358.67 748.44 374.14 743.70 390.00
  Z"
/>
</svg>
